<?xml version="1.0" encoding="UTF-8"?>
<svg width="22px" height="22px" viewBox="0 0 22 22" version="1.1" xmlns="http://www.w3.org/2000/svg" xmlns:xlink="http://www.w3.org/1999/xlink">
    <title>Path</title>
    <defs>
        <rect id="path-1" x="0" y="0" width="1440" height="2357"></rect>
        <linearGradient x1="47.8811284%" y1="49.571565%" x2="54.9691853%" y2="62.7984209%" id="linearGradient-3">
            <stop stop-color="#081762" offset="0%"></stop>
            <stop stop-color="#060726" offset="100%"></stop>
        </linearGradient>
        <ellipse id="path-4" cx="484.5" cy="186.5" rx="903.5" ry="406.5"></ellipse>
        <filter x="-60.3%" y="-134.1%" width="227.3%" height="382.9%" filterUnits="objectBoundingBox" id="filter-5">
            <feGaussianBlur stdDeviation="50" in="SourceGraphic"></feGaussianBlur>
        </filter>
        <filter x="-89.7%" y="-199.3%" width="285.9%" height="513.3%" filterUnits="objectBoundingBox" id="filter-6">
            <feOffset dx="60" dy="60" in="SourceAlpha" result="shadowOffsetOuter1"></feOffset>
            <feGaussianBlur stdDeviation="500" in="shadowOffsetOuter1" result="shadowBlurOuter1"></feGaussianBlur>
            <feColorMatrix values="0 0 0 0 0.031372549   0 0 0 0 0.0901960784   0 0 0 0 0.384313725  0 0 0 0.6 0" type="matrix" in="shadowBlurOuter1"></feColorMatrix>
        </filter>
    </defs>
    <g id="Desktop" stroke="none" stroke-width="1" fill="none" fill-rule="evenodd">
        <g id="Portfolio---Main-Page---Menu---Hover" transform="translate(-1252.000000, -61.000000)">
            <g id="Group-4">
                <mask id="mask-2" fill="white">
                    <use xlink:href="#path-1"></use>
                </mask>
                <use id="Rectangle" fill="#060726" xlink:href="#path-1"></use>
                <g id="Oval" filter="url(#filter-5)" mask="url(#mask-2)" transform="translate(484.500000, 186.500000) rotate(-9.000000) translate(-484.500000, -186.500000) ">
                    <use fill="black" fill-opacity="1" filter="url(#filter-6)" xlink:href="#path-4"></use>
                    <use fill="url(#linearGradient-3)" fill-rule="evenodd" xlink:href="#path-4"></use>
                </g>
            </g>
            <text id="About-me-Projects-Co" font-family="HindGuntur-Light, Hind Guntur" font-size="20" font-weight="300" line-spacing="24" fill="#F1F4FA">
                <tspan x="955" y="82">About	 me		Projects		Contact</tspan>
            </text>
            <rect id="Rectangle" fill="#E46A45" opacity="0.949999988" x="0" y="0" width="1440" height="1024"></rect>
            <g id="Glyphs/Close" transform="translate(1252.000000, 61.000000)" fill="#F1F4FA" fill-rule="nonzero">
                <g id="letter-x">
                    <path d="M0.309446005,1.83529643 C-0.103148668,1.42280545 -0.103148668,0.736281987 0.309446005,0.309368239 C0.736467065,-0.103122746 1.40873671,-0.103122746 1.83575777,0.309368239 L10.9945901,9.48128319 L20.1688106,0.309368239 C20.5814053,-0.103122746 21.2681013,-0.103122746 21.6797342,0.309368239 C22.1067553,0.736281987 22.1067553,1.42376696 21.6797342,1.83529643 L12.5209019,10.9927886 L21.6797342,20.1647036 C22.1067553,20.5771946 22.1067553,21.263718 21.6797342,21.6906318 C21.2671395,22.1031227 20.5804435,22.1031227 20.1688106,21.6906318 L10.9945901,12.5187168 L1.83575777,21.6906318 C1.40873671,22.1031227 0.736467065,22.1031227 0.309446005,21.6906318 C-0.103148668,21.263718 -0.103148668,20.576233 0.309446005,20.1647036 L9.46827834,10.9927886 L0.309446005,1.83529643 Z" id="Path"></path>
                </g>
            </g>
        </g>
    </g>
</svg>