<?xml version="1.0" encoding="UTF-8"?>
<svg width="24px" height="18px" viewBox="0 0 24 18" version="1.1" xmlns="http://www.w3.org/2000/svg" xmlns:xlink="http://www.w3.org/1999/xlink">
    <title>icon-email</title>
    <g id="Symbols" stroke="none" stroke-width="1" fill="none" fill-rule="evenodd">
        <g id="Glyphs/Email" transform="translate(0.000000, -3.000000)" fill="#00273E" fill-rule="nonzero">
            <g id="icon-email" transform="translate(0.000000, 3.000000)">
                <path d="M21.7499843,0 L2.25001566,0 C1.00928071,0 1.77635684e-15,1.00928071 1.77635684e-15,2.25001566 L1.77635684e-15,15.7500094 C1.77635684e-15,16.9907443 1.00928071,18.000025 2.25001566,18.000025 L21.7499843,18.000025 C22.9907193,18.000025 24,16.9907443 24,15.7500094 L24,2.25001566 C24,1.00928071 22.9907193,0 21.7499843,0 Z M21.7499843,1.49999374 C21.8518843,1.49999374 21.9488246,1.52113523 22.0374485,1.55805769 L12,10.2575805 L1.96250141,1.55805769 C2.05112533,1.52118533 2.14806558,1.49999374 2.24996556,1.49999374 L21.7499843,1.49999374 Z M21.7499843,16.4999812 L2.25001566,16.4999812 C1.83620355,16.4999812 1.49999374,16.1638215 1.49999374,15.7499593 L1.49999374,3.14281778 L11.5085355,11.8168906 C11.649913,11.9391806 11.8249565,12 11.9999937,12 C12.1750435,12 12.350087,11.9392307 12.4914645,11.8168906 L22.5000063,3.14281778 L22.5000063,15.7500094 C22.5000063,16.1638215 22.1637965,16.4999812 21.7499843,16.4999812 L21.7499843,16.4999812 Z" id="Shape"></path>
            </g>
        </g>
    </g>
</svg>