<?xml version="1.0" encoding="UTF-8"?>
<svg width="22px" height="22px" viewBox="0 0 22 22" version="1.1" xmlns="http://www.w3.org/2000/svg" xmlns:xlink="http://www.w3.org/1999/xlink">
    <title>phone-call</title>
    <g id="Symbols" stroke="none" stroke-width="1" fill="none" fill-rule="evenodd">
        <g id="Glyphs/Phone" transform="translate(-1.000000, -1.000000)" fill="#00273E" fill-rule="nonzero">
            <g id="phone-call" transform="translate(1.000000, 1.000000)">
                <path d="M18.5198919,13.1142473 C18.0397063,12.6164875 17.4605134,12.3503584 16.8466678,12.3503584 C16.2377727,12.3503584 15.6536294,12.6115591 15.1536423,13.109319 L13.5893263,14.6617384 C13.4606167,14.5927419 13.3319072,14.5286738 13.208148,14.4646057 C13.0299348,14.3758961 12.8616223,14.2921147 12.7180617,14.203405 C11.252753,13.2768817 9.92110425,12.0694444 8.64390954,10.5071685 C8.02511365,9.72849462 7.60928281,9.07302867 7.30731042,8.40770609 C7.71324052,8.03808244 8.08946842,7.65367384 8.45579559,7.28405018 C8.59440586,7.14605735 8.73301614,7.0031362 8.87162642,6.86514337 C9.91120352,5.83019713 9.91120352,4.48969534 8.87162642,3.4547491 L7.5201762,2.109319 C7.36671482,1.95654122 7.20830307,1.79883513 7.05979206,1.64112903 C6.76277003,1.33557348 6.45089691,1.02016129 6.12912304,0.724462366 C5.64893743,0.251344086 5.07469485,0 4.47075006,0 C3.86680527,0 3.28266195,0.251344086 2.78762524,0.724462366 C2.78267488,0.729390681 2.78267488,0.729390681 2.77772451,0.734318996 L1.09459969,2.42473118 C0.460952701,3.05555556 0.0995759022,3.82437276 0.0203700284,4.71639785 C-0.0984387823,6.15546595 0.327292789,7.49596774 0.654017019,8.37320789 C1.45597649,10.5268817 2.65396533,12.5228495 4.44104786,14.6617384 C6.60930865,17.2392473 9.21815212,19.2746416 12.1982731,20.7087814 C13.3368576,21.2459677 14.8566203,21.8817204 16.5545962,21.9901434 C16.6585539,21.9950717 16.767462,22 16.8664693,22 C18.0100041,22 18.9703753,21.5909498 19.7228311,20.7777778 C19.7277815,20.7679211 19.7376822,20.7629928 19.7426326,20.7531362 C20.0000517,20.4426523 20.2970737,20.1617384 20.6089468,19.8611111 C20.8218126,19.6590502 21.0396288,19.4471326 21.2524946,19.2253584 C21.7425809,18.7177419 22,18.1263441 22,17.5201613 C22,16.9090502 21.7376305,16.3225806 21.2376435,15.8297491 L18.5198919,13.1142473 Z M20.2921233,18.3037634 C20.287173,18.3037634 20.287173,18.3086918 20.2921233,18.3037634 C20.099059,18.5107527 19.9010443,18.6980287 19.6881786,18.9050179 C19.3664047,19.2105735 19.0396805,19.530914 18.7327577,19.890681 C18.2327706,20.4229391 17.6436769,20.6742832 16.8714197,20.6742832 C16.7971642,20.6742832 16.7179583,20.6742832 16.6437028,20.6693548 C15.1734438,20.5757168 13.8071424,20.0040323 12.7824164,19.516129 C9.98050866,18.1657706 7.5201762,16.2486559 5.47567458,13.8189964 C3.7875994,11.7934588 2.6589157,9.92069892 1.91141026,7.90994624 C1.45102612,6.6827957 1.28271364,5.72670251 1.35696915,4.82482079 C1.40647282,4.24820789 1.62923934,3.77016129 2.04011981,3.36111111 L3.72819499,1.68055556 C3.97076298,1.45385305 4.22818207,1.33064516 4.4806508,1.33064516 C4.79252392,1.33064516 5.04499265,1.51792115 5.20340439,1.67562724 C5.20835476,1.68055556 5.21330513,1.68548387 5.21825549,1.69041219 C5.52022789,1.97132616 5.80734918,2.26209677 6.10932157,2.57258065 C6.26278296,2.73028674 6.4211947,2.88799283 6.57960645,3.05062724 L7.93105667,4.39605735 C8.45579559,4.91845878 8.45579559,5.40143369 7.93105667,5.92383513 C7.78749603,6.06675627 7.64888575,6.20967742 7.5053251,6.34767025 C7.08949426,6.77150538 6.69346489,7.16577061 6.26278296,7.55017921 C6.25288222,7.56003584 6.24298149,7.56496416 6.23803112,7.57482079 C5.81229955,7.99865591 5.89150542,8.41263441 5.98061203,8.69354839 C5.9855624,8.70833333 5.99051276,8.72311828 5.99546313,8.73790323 C6.3469392,9.58557348 6.84197591,10.3839606 7.59443171,11.3351254 L7.59938207,11.3400538 C8.9656834,13.015681 10.4062402,14.3216846 11.9953081,15.3221326 C12.1982731,15.4502688 12.4061885,15.5537634 12.6042032,15.6523297 C12.7824164,15.7410394 12.9507289,15.8248208 13.0942896,15.9135305 C13.114091,15.9233871 13.1338925,15.938172 13.153694,15.9480287 C13.3220065,16.03181 13.4804182,16.0712366 13.6437803,16.0712366 C14.0546608,16.0712366 14.3120799,15.8149642 14.3962361,15.7311828 L16.0892617,14.0456989 C16.2575742,13.8781362 16.524894,13.6760753 16.8367671,13.6760753 C17.1436899,13.6760753 17.3961586,13.8682796 17.54962,14.0358423 C17.5545703,14.0407706 17.5545703,14.0407706 17.5595207,14.0456989 L20.287173,16.7612007 C20.7970608,17.2638889 20.7970608,17.781362 20.2921233,18.3037634 Z" id="Shape"></path>
            </g>
        </g>
    </g>
</svg>