<?xml version="1.0" encoding="UTF-8"?>
<svg width="24px" height="20px" viewBox="0 0 24 20" version="1.1" xmlns="http://www.w3.org/2000/svg" xmlns:xlink="http://www.w3.org/1999/xlink">
    <title>right-arrow</title>
    <g id="Symbols" stroke="none" stroke-width="1" fill="none" fill-rule="evenodd">
        <g id="Glyphs/Navigation/Right-Arrow" transform="translate(0.000000, -2.000000)" fill="#F1F4FA" fill-rule="nonzero">
            <g id="right-arrow" transform="translate(0.000000, 2.000000)">
                <path d="M14.6895,0.276 C14.29,-0.1045 13.6565,-0.0895 13.276,0.3105 C12.895,0.7105 12.911,1.3435 13.3105,1.7245 L20.9815,9 L1,9 C0.448,9 0,9.448 0,10 C0,10.552 0.448,11 1,11 L20.9495,11 L13.3105,18.276 C12.9105,18.657 12.895,19.29 13.276,19.69 C13.4725,19.896 13.736,20 14,20 C14.248,20 14.496,19.9085 14.6895,19.724 L23.414,11.414 C23.792,11.0365 24,10.5345 24,10 C24,9.4655 23.792,8.9635 23.3965,8.569 L14.6895,0.276 Z" id="Path"></path>
            </g>
        </g>
    </g>
</svg>